<svg width="21" height="21" viewBox="0 0 21 21" fill="none" xmlns="http://www.w3.org/2000/svg">
<path d="M9.742 1H6.003C2.928 1 1 3.177 1 6.259V14.573C1 17.655 2.919 19.832 6.003 19.832H14.827C17.912 19.832 19.831 17.655 19.831 14.573V10.545" stroke="white" stroke-width="1.2" stroke-linecap="round" stroke-linejoin="round"/>
<path fill-rule="evenodd" clip-rule="evenodd" d="M8.84421 7.90283L14.9386 1.78221C15.6979 1.02051 16.9285 1.02051 17.6878 1.78221L18.6803 2.77897C19.4395 3.54149 19.4395 4.77823 18.6803 5.53993L12.5565 11.69C12.2246 12.0234 11.7744 12.2109 11.3047 12.2109H8.24969L8.32635 9.115C8.33777 8.65962 8.5229 8.22553 8.84421 7.90283Z" stroke="white" stroke-width="1.2" stroke-linecap="round" stroke-linejoin="round"/>
<path d="M14.0125 2.72852L17.7362 6.46821" stroke="white" stroke-width="1.2" stroke-linecap="round" stroke-linejoin="round"/>
</svg>
