<svg width="20" height="21" viewBox="0 0 20 21" fill="none" xmlns="http://www.w3.org/2000/svg">
<path fill-rule="evenodd" clip-rule="evenodd" d="M14.1148 1H7.59664C5.60976 1 4 2.72868 4 4.86002V16.0902C4.01157 18.263 5.66184 20.0134 7.68634 19.9999C7.72492 19.9999 7.76254 19.9989 7.80015 19.9979H15.4034C17.3979 19.9761 19.0039 18.2319 19 16.0902V6.46345L14.1148 1Z" stroke="#016CBF" stroke-width="1.2" stroke-linecap="round" stroke-linejoin="round"/>
<path d="M13.9999 1V3.909C13.9999 5.345 14.4999 6.5 16.042 6.484L18.9999 6.5" stroke="#016CBF" stroke-width="1.2" stroke-linecap="round" stroke-linejoin="round"/>
<path d="M15.401 14.2524H10.001" stroke="#016CBF" stroke-width="1.2" stroke-linecap="round" stroke-linejoin="round"/>
<path d="M13.356 10.5H10" stroke="#016CBF" stroke-width="1.2" stroke-linecap="round" stroke-linejoin="round"/>
<path d="M7.887 6H3.1185C1.254 6 0 7.309 0 9.256V13.75C0 15.6915 1.254 17 3.1185 17H7.887C9.7515 17 11 15.6915 11 13.75V9.256C11 7.309 9.7515 6 7.887 6V6Z" fill="#016CBF"/>
<path d="M7.80505 12.8619C8.06498 13.1216 8.06498 13.5417 7.80505 13.8006C7.67508 13.9305 7.50688 14 7.33104 14C7.16284 14 6.99465 13.9389 6.86468 13.8006L5.50382 12.4494L4.14297 13.8006C4.013 13.9305 3.8448 14 3.66896 14C3.50076 14 3.32492 13.9305 3.19495 13.8006C2.93502 13.5417 2.93502 13.1216 3.19495 12.8542L4.55581 11.5022L3.19495 10.1418C2.93502 9.88282 2.93502 9.45507 3.19495 9.19536C3.45489 8.93488 3.87538 8.93488 4.14297 9.19536L5.50382 10.5543L6.85703 9.19536C7.12462 8.93488 7.54511 8.93488 7.80505 9.19536C8.06498 9.45507 8.06498 9.88282 7.80505 10.1418L6.44419 11.5022L7.80505 12.8619Z" fill="white"/>
</svg>
