<svg width="20" height="19" viewBox="0 0 20 19" fill="none" xmlns="http://www.w3.org/2000/svg">
<path d="M6.40006 18.5003H2.17011C1.52394 18.5003 1.00012 17.9765 1.00012 17.3303L1.00012 13.1003M1.90005 17.6004L6.40006 13.1003" stroke="#016CBF" stroke-linecap="round"/>
<path d="M18.9997 5.89921V1.66925C18.9997 1.02309 18.4759 0.499268 17.8297 0.499268L13.5998 0.499268M18.0997 1.3993L13.5998 5.89921" stroke="#016CBF" stroke-linecap="round"/>
<path d="M0.999779 5.8997L0.999779 1.66974C0.999779 1.02358 1.5236 0.499756 2.16976 0.499756L6.39972 0.499756M1.89963 1.39969L6.39972 5.8997" stroke="#016CBF" stroke-linecap="round"/>
<path d="M13.6001 18.4998L17.83 18.4998C18.4762 18.4998 19 17.976 19 17.3298L19 13.0999M18.1 17.5998L13.6001 13.0999" stroke="#016CBF" stroke-linecap="round"/>
</svg>
