<svg width="22" height="22" viewBox="0 0 22 22" fill="none" xmlns="http://www.w3.org/2000/svg">
<path fill-rule="evenodd" clip-rule="evenodd" d="M15.6857 21L6.31429 21C3.04762 21 1 18.6879 1 15.4148L0.999999 6.58516C0.999998 3.31208 3.03809 1 6.31428 1L15.6857 0.999999C18.9619 0.999998 21 3.31208 21 6.58516L21 15.4148C21 18.6879 18.9619 21 15.6857 21Z" stroke="white" stroke-width="1.2" stroke-linecap="round" stroke-linejoin="round"/>
<path d="M9.54769 12.5615C9.17471 12.1891 8.94769 11.6832 8.94769 11.1156C8.94769 9.97855 9.86358 9.06201 11 9.06201C11.5624 9.06201 12.08 9.28969 12.4465 9.66201" stroke="white" stroke-width="1.2" stroke-linecap="round" stroke-linejoin="round"/>
<path d="M13.0142 11.481C12.8637 12.3177 12.2047 12.978 11.3685 13.1298" stroke="white" stroke-width="1.2" stroke-linecap="round" stroke-linejoin="round"/>
<path d="M7.53297 14.576C6.50357 13.7678 5.63178 12.5873 5 11.1155C5.63827 9.63723 6.51589 8.4502 7.55178 7.6355C8.58119 6.8208 9.76887 6.37842 11 6.37842C12.2383 6.37842 13.4253 6.82728 14.4612 7.64782" stroke="white" stroke-width="1.2" stroke-linecap="round" stroke-linejoin="round"/>
<path d="M15.8311 9.07471C16.2774 9.66757 16.6698 10.3519 17 11.1154C15.7241 14.0712 13.4694 15.8518 11 15.8518C10.4402 15.8518 9.88821 15.761 9.35761 15.5839" stroke="white" stroke-width="1.2" stroke-linecap="round" stroke-linejoin="round"/>
<path d="M16.1161 6L5.88435 16.2318" stroke="white" stroke-width="1.2" stroke-linecap="round" stroke-linejoin="round"/>
</svg>
