<svg width="22" height="22" viewBox="0 0 22 22" fill="none" xmlns="http://www.w3.org/2000/svg">
<path fill-rule="evenodd" clip-rule="evenodd" d="M21 15.6854L21 6.31351C21 3.04865 18.6876 1 15.4151 1L6.58486 1C3.31243 1 1 3.03784 1 6.31351L1 15.6854C1 18.9611 3.31243 21 6.58486 21L15.4151 21C18.6876 21 21 18.9611 21 15.6854Z" stroke="white" stroke-width="1.2" stroke-linecap="round" stroke-linejoin="round"/>
<path d="M14.5 10.9595L10.5 10.9595" stroke="white" stroke-width="1.2" stroke-linecap="round" stroke-linejoin="round"/>
<path d="M13.5 14L16.5 11L15 9.5L13.5 8L13.5 14Z" fill="white" stroke="white" stroke-width="1.2" stroke-linecap="round" stroke-linejoin="round"/>
<path d="M5.5 15L7.59344 14.5L10.5 11L7.59344 7.5L5.5 7" stroke="white" stroke-width="1.2" stroke-linecap="round" stroke-linejoin="round"/>
</svg>
