<svg width="32" height="32" viewBox="0 0 32 32" fill="none" xmlns="http://www.w3.org/2000/svg">
<path d="M8.76814 11.5933C9.50583 10.3155 10.5825 9.26672 11.8791 8.56273C13.1757 7.85874 14.6417 7.52701 16.115 7.60423C17.5884 7.68144 19.0117 8.16459 20.2276 9.00025C21.4435 9.83592 22.4046 10.9915 23.0047 12.3394M6.92816 9.10863L7.65757 12.2682C7.78181 12.8063 8.31876 13.1418 8.85689 13.0176L12.0164 12.2882M22.6246 19.5932C21.8869 20.8709 20.8102 21.9197 19.5137 22.6237C18.2171 23.3277 16.751 23.6594 15.2777 23.5822C13.8043 23.505 12.381 23.0218 11.1651 22.1862C9.94923 21.3505 8.98811 20.1949 8.38802 18.847M24.4646 22.0778L23.7351 18.9183C23.6109 18.3801 23.074 18.0446 22.5358 18.1688L19.3763 18.8982" stroke="#4A4A4A" stroke-width="1.5" stroke-linecap="round"/>
</svg>
